<mxfile host="app.diagrams.net" modified="2024-05-17T18:56:04.261Z" agent="Mozilla/5.0 (Macintosh; Intel Mac OS X 10_15_7) AppleWebKit/537.36 (KHTML, like Gecko) Chrome/125.0.0.0 Safari/537.36" etag="_fVOWOC-D8uGvZ9I-G_9" version="24.4.2" type="device">
  <diagram id="R2lEEEUBdFMjLlhIrx00" name="Page-1">
    <mxGraphModel dx="5887" dy="6056" grid="1" gridSize="10" guides="1" tooltips="1" connect="1" arrows="1" fold="1" page="1" pageScale="1" pageWidth="3300" pageHeight="4681" math="0" shadow="0" extFonts="Permanent Marker^https://fonts.googleapis.com/css?family=Permanent+Marker">
      <root>
        <mxCell id="0" />
        <mxCell id="1" parent="0" />
        <mxCell id="dPPaEK9G9NtgSY-2lidK-15" value="&lt;span&gt;HOTEL&lt;/span&gt;" style="whiteSpace=wrap;html=1;align=center;strokeColor=#d6b656;verticalAlign=middle;fontFamily=Helvetica;fontSize=12;fontColor=default;fillColor=#fff2cc;fontStyle=1" parent="1" vertex="1">
          <mxGeometry x="40" y="385.5" width="100" height="50" as="geometry" />
        </mxCell>
        <mxCell id="dPPaEK9G9NtgSY-2lidK-16" value="&lt;span&gt;EMPLOYEE&lt;/span&gt;" style="whiteSpace=wrap;html=1;align=center;strokeColor=#d6b656;verticalAlign=middle;fontFamily=Helvetica;fontSize=12;fontColor=default;fillColor=#fff2cc;fontStyle=1" parent="1" vertex="1">
          <mxGeometry x="396" y="123" width="100" height="40" as="geometry" />
        </mxCell>
        <mxCell id="dPPaEK9G9NtgSY-2lidK-17" value="&lt;span&gt;ROOM&lt;/span&gt;" style="whiteSpace=wrap;html=1;align=center;strokeColor=#d6b656;verticalAlign=middle;fontFamily=Helvetica;fontSize=12;fontColor=default;fillColor=#fff2cc;fontStyle=1" parent="1" vertex="1">
          <mxGeometry x="346" y="383" width="100" height="55" as="geometry" />
        </mxCell>
        <mxCell id="dPPaEK9G9NtgSY-2lidK-18" value="&lt;span&gt;PAYMENT_DETAILS&lt;/span&gt;" style="rounded=1;arcSize=10;whiteSpace=wrap;html=1;align=center;strokeColor=#d6b656;verticalAlign=middle;fontFamily=Helvetica;fontSize=12;fontColor=default;fillColor=#fff2cc;fontStyle=1" parent="1" vertex="1">
          <mxGeometry x="840" y="540" width="150" height="50" as="geometry" />
        </mxCell>
        <mxCell id="dPPaEK9G9NtgSY-2lidK-19" value="&lt;span&gt;WORKS&lt;/span&gt;" style="shape=rhombus;perimeter=rhombusPerimeter;whiteSpace=wrap;html=1;align=center;strokeColor=#001DBC;verticalAlign=middle;fontFamily=Helvetica;fontSize=12;fontColor=#ffffff;fillColor=#0050ef;fontStyle=1" parent="1" vertex="1">
          <mxGeometry x="26" y="113" width="130" height="60" as="geometry" />
        </mxCell>
        <mxCell id="uLvGfTFa8WDCAzrJC_-o-11" value="" style="endArrow=none;html=1;rounded=0;strokeColor=default;strokeWidth=5;align=center;verticalAlign=middle;fontFamily=Helvetica;fontSize=12;fontColor=default;labelBackgroundColor=default;jumpSize=13;startSize=9;endSize=9;fontStyle=1;entryX=0;entryY=0.5;entryDx=0;entryDy=0;exitX=1;exitY=0.5;exitDx=0;exitDy=0;" parent="1" source="uLvGfTFa8WDCAzrJC_-o-15" target="uLvGfTFa8WDCAzrJC_-o-14" edge="1">
          <mxGeometry relative="1" as="geometry">
            <mxPoint x="506" y="253" as="sourcePoint" />
            <mxPoint x="586" y="253" as="targetPoint" />
          </mxGeometry>
        </mxCell>
        <mxCell id="uLvGfTFa8WDCAzrJC_-o-13" value="SERVER" style="whiteSpace=wrap;html=1;align=center;strokeColor=#d6b656;verticalAlign=middle;fontFamily=Helvetica;fontSize=12;fontColor=default;fillColor=#fff2cc;fontStyle=1" parent="1" vertex="1">
          <mxGeometry x="246" y="210" width="100" height="40" as="geometry" />
        </mxCell>
        <mxCell id="uLvGfTFa8WDCAzrJC_-o-14" value="CHEF" style="whiteSpace=wrap;html=1;align=center;strokeColor=#d6b656;verticalAlign=middle;fontFamily=Helvetica;fontSize=12;fontColor=default;fillColor=#fff2cc;fontStyle=1" parent="1" vertex="1">
          <mxGeometry x="580" y="210" width="100" height="40" as="geometry" />
        </mxCell>
        <mxCell id="uLvGfTFa8WDCAzrJC_-o-15" value="&lt;span&gt;IS A&lt;/span&gt;" style="shape=rhombus;perimeter=rhombusPerimeter;whiteSpace=wrap;html=1;align=center;strokeColor=#001DBC;verticalAlign=middle;fontFamily=Helvetica;fontSize=12;fontColor=#ffffff;fillColor=#0050ef;fontStyle=1" parent="1" vertex="1">
          <mxGeometry x="390" y="200" width="130" height="60" as="geometry" />
        </mxCell>
        <mxCell id="uLvGfTFa8WDCAzrJC_-o-19" value="OWNS" style="shape=rhombus;perimeter=rhombusPerimeter;whiteSpace=wrap;html=1;align=center;strokeColor=#001DBC;verticalAlign=middle;fontFamily=Helvetica;fontSize=12;fontColor=#ffffff;fillColor=#0050ef;fontStyle=1" parent="1" vertex="1">
          <mxGeometry x="196" y="387.5" width="90" height="45" as="geometry" />
        </mxCell>
        <mxCell id="uLvGfTFa8WDCAzrJC_-o-27" value="RESERVATION" style="shape=rhombus;perimeter=rhombusPerimeter;whiteSpace=wrap;html=1;align=center;strokeColor=#001DBC;verticalAlign=middle;fontFamily=Helvetica;fontSize=12;fontColor=#ffffff;fillColor=#0050ef;fontStyle=1" parent="1" vertex="1">
          <mxGeometry x="970" y="453" width="120" height="60" as="geometry" />
        </mxCell>
        <mxCell id="uLvGfTFa8WDCAzrJC_-o-31" value="ADD_ON" style="whiteSpace=wrap;html=1;align=center;strokeColor=#d6b656;verticalAlign=middle;fontFamily=Helvetica;fontSize=12;fontColor=default;fillColor=#fff2cc;fontStyle=1" parent="1" vertex="1">
          <mxGeometry x="1100" y="550" width="100" height="40" as="geometry" />
        </mxCell>
        <mxCell id="uLvGfTFa8WDCAzrJC_-o-35" value="FACILITIES" style="shape=rhombus;perimeter=rhombusPerimeter;whiteSpace=wrap;html=1;align=center;strokeColor=#001DBC;verticalAlign=middle;fontFamily=Helvetica;fontSize=12;fontColor=#ffffff;fillColor=#0050ef;fontStyle=1" parent="1" vertex="1">
          <mxGeometry x="36" y="510" width="120" height="60" as="geometry" />
        </mxCell>
        <mxCell id="uLvGfTFa8WDCAzrJC_-o-36" value="" style="endArrow=none;html=1;rounded=0;strokeColor=default;strokeWidth=5;align=center;verticalAlign=middle;fontFamily=Helvetica;fontSize=12;fontColor=#ffffff;labelBackgroundColor=default;jumpSize=13;startSize=9;endSize=9;entryX=0;entryY=0.5;entryDx=0;entryDy=0;exitX=0.5;exitY=0;exitDx=0;exitDy=0;fontStyle=1" parent="1" source="uLvGfTFa8WDCAzrJC_-o-37" target="uLvGfTFa8WDCAzrJC_-o-35" edge="1">
          <mxGeometry relative="1" as="geometry">
            <mxPoint x="316" y="613" as="sourcePoint" />
            <mxPoint x="336" y="583" as="targetPoint" />
          </mxGeometry>
        </mxCell>
        <mxCell id="uLvGfTFa8WDCAzrJC_-o-37" value="FEATURE" style="whiteSpace=wrap;html=1;align=center;strokeColor=#d6b656;verticalAlign=middle;fontFamily=Helvetica;fontSize=12;fontColor=default;fillColor=#fff2cc;fontStyle=1" parent="1" vertex="1">
          <mxGeometry x="-80" y="570" width="100" height="40" as="geometry" />
        </mxCell>
        <mxCell id="uLvGfTFa8WDCAzrJC_-o-38" value="" style="endArrow=none;html=1;rounded=0;strokeColor=default;strokeWidth=5;align=center;verticalAlign=middle;fontFamily=Helvetica;fontSize=12;fontColor=#ffffff;labelBackgroundColor=default;jumpSize=13;startSize=9;endSize=9;exitX=1;exitY=0.5;exitDx=0;exitDy=0;fontStyle=1;entryX=0.5;entryY=0;entryDx=0;entryDy=0;" parent="1" source="uLvGfTFa8WDCAzrJC_-o-35" target="uLvGfTFa8WDCAzrJC_-o-40" edge="1">
          <mxGeometry relative="1" as="geometry">
            <mxPoint x="396" y="633" as="sourcePoint" />
            <mxPoint x="466" y="613" as="targetPoint" />
          </mxGeometry>
        </mxCell>
        <mxCell id="uLvGfTFa8WDCAzrJC_-o-40" value="BEDTYPE" style="whiteSpace=wrap;html=1;align=center;strokeColor=#d6b656;verticalAlign=middle;fontFamily=Helvetica;fontSize=12;fontColor=default;fillColor=#fff2cc;fontStyle=1" parent="1" vertex="1">
          <mxGeometry x="160" y="570" width="100" height="40" as="geometry" />
        </mxCell>
        <mxCell id="uLvGfTFa8WDCAzrJC_-o-41" value="DETAILS" style="shape=rhombus;perimeter=rhombusPerimeter;whiteSpace=wrap;html=1;align=center;strokeColor=#001DBC;verticalAlign=middle;fontFamily=Helvetica;fontSize=12;fontColor=#ffffff;fillColor=#0050ef;fontStyle=1" parent="1" vertex="1">
          <mxGeometry x="470" y="483" width="120" height="60" as="geometry" />
        </mxCell>
        <mxCell id="uLvGfTFa8WDCAzrJC_-o-43" value="STATUS" style="whiteSpace=wrap;html=1;align=center;strokeColor=#d6b656;verticalAlign=middle;fontFamily=Helvetica;fontSize=12;fontColor=default;fillColor=#fff2cc;fontStyle=1" parent="1" vertex="1">
          <mxGeometry x="330" y="570" width="100" height="40" as="geometry" />
        </mxCell>
        <mxCell id="uLvGfTFa8WDCAzrJC_-o-44" value="FLOOR" style="whiteSpace=wrap;html=1;align=center;strokeColor=#d6b656;verticalAlign=middle;fontFamily=Helvetica;fontSize=12;fontColor=default;fillColor=#fff2cc;fontStyle=1" parent="1" vertex="1">
          <mxGeometry x="620" y="570" width="100" height="40" as="geometry" />
        </mxCell>
        <mxCell id="uLvGfTFa8WDCAzrJC_-o-50" value="employee_id" style="ellipse;whiteSpace=wrap;html=1;align=center;strokeColor=#000000;verticalAlign=middle;fontFamily=Helvetica;fontSize=12;fontColor=#000000;fontStyle=4;fillColor=#FFFFFF;" parent="1" vertex="1">
          <mxGeometry x="346" y="5" width="100" height="40" as="geometry" />
        </mxCell>
        <mxCell id="uLvGfTFa8WDCAzrJC_-o-53" value="service_id" style="ellipse;whiteSpace=wrap;html=1;align=center;strokeColor=#000000;verticalAlign=middle;fontFamily=Helvetica;fontSize=12;fontColor=#000000;fontStyle=1;fillColor=#FFFFFF;" parent="1" vertex="1">
          <mxGeometry x="260" y="30" width="100" height="40" as="geometry" />
        </mxCell>
        <mxCell id="uLvGfTFa8WDCAzrJC_-o-58" value="&lt;span style=&quot;font-weight: normal;&quot;&gt;f_name&lt;/span&gt;" style="ellipse;whiteSpace=wrap;html=1;align=center;strokeColor=#000000;verticalAlign=middle;fontFamily=Helvetica;fontSize=12;fontColor=#000000;fontStyle=1;fillColor=#FFFFFF;" parent="1" vertex="1">
          <mxGeometry x="400" y="-70" width="100" height="40" as="geometry" />
        </mxCell>
        <mxCell id="uLvGfTFa8WDCAzrJC_-o-59" value="&lt;span style=&quot;font-weight: normal;&quot;&gt;l_name&lt;/span&gt;" style="ellipse;whiteSpace=wrap;html=1;align=center;strokeColor=#000000;verticalAlign=middle;fontFamily=Helvetica;fontSize=12;fontColor=#000000;fontStyle=1;fillColor=#FFFFFF;" parent="1" vertex="1">
          <mxGeometry x="510" y="-70" width="100" height="40" as="geometry" />
        </mxCell>
        <mxCell id="uLvGfTFa8WDCAzrJC_-o-60" value="" style="endArrow=none;html=1;rounded=0;strokeColor=default;strokeWidth=2;align=center;verticalAlign=middle;fontFamily=Helvetica;fontSize=12;fontColor=#ffffff;fontStyle=1;labelBackgroundColor=default;jumpSize=13;startSize=9;endSize=9;entryX=0.279;entryY=1.058;entryDx=0;entryDy=0;exitX=0.5;exitY=0;exitDx=0;exitDy=0;entryPerimeter=0;" parent="1" source="-mcHrNaYeSExfV8_1VFp-3" target="uLvGfTFa8WDCAzrJC_-o-59" edge="1">
          <mxGeometry relative="1" as="geometry">
            <mxPoint x="601.2347523777216" y="34.38262381113873" as="sourcePoint" />
            <mxPoint x="740" y="50" as="targetPoint" />
          </mxGeometry>
        </mxCell>
        <mxCell id="uLvGfTFa8WDCAzrJC_-o-61" value="" style="endArrow=none;html=1;rounded=0;strokeColor=default;strokeWidth=2;align=center;verticalAlign=middle;fontFamily=Helvetica;fontSize=12;fontColor=#ffffff;fontStyle=1;labelBackgroundColor=default;jumpSize=13;startSize=9;endSize=9;exitX=0.5;exitY=1;exitDx=0;exitDy=0;entryX=0.25;entryY=0;entryDx=0;entryDy=0;" parent="1" source="uLvGfTFa8WDCAzrJC_-o-53" target="dPPaEK9G9NtgSY-2lidK-16" edge="1">
          <mxGeometry relative="1" as="geometry">
            <mxPoint x="300" y="120" as="sourcePoint" />
            <mxPoint x="460" y="120" as="targetPoint" />
          </mxGeometry>
        </mxCell>
        <mxCell id="uLvGfTFa8WDCAzrJC_-o-62" value="" style="endArrow=none;html=1;rounded=0;strokeColor=default;strokeWidth=2;align=center;verticalAlign=middle;fontFamily=Helvetica;fontSize=12;fontColor=#ffffff;fontStyle=1;labelBackgroundColor=default;jumpSize=13;startSize=9;endSize=9;exitX=0.5;exitY=1;exitDx=0;exitDy=0;entryX=0.345;entryY=0.007;entryDx=0;entryDy=0;entryPerimeter=0;" parent="1" source="uLvGfTFa8WDCAzrJC_-o-50" target="dPPaEK9G9NtgSY-2lidK-16" edge="1">
          <mxGeometry relative="1" as="geometry">
            <mxPoint x="420" y="90" as="sourcePoint" />
            <mxPoint x="430" y="140" as="targetPoint" />
          </mxGeometry>
        </mxCell>
        <mxCell id="uLvGfTFa8WDCAzrJC_-o-64" value="" style="endArrow=none;html=1;rounded=0;strokeColor=default;strokeWidth=2;align=center;verticalAlign=middle;fontFamily=Helvetica;fontSize=12;fontColor=#ffffff;fontStyle=1;labelBackgroundColor=default;jumpSize=13;startSize=9;endSize=9;exitX=0.27;exitY=0.95;exitDx=0;exitDy=0;exitPerimeter=0;entryX=0.5;entryY=0;entryDx=0;entryDy=0;" parent="1" target="dPPaEK9G9NtgSY-2lidK-16" edge="1">
          <mxGeometry relative="1" as="geometry">
            <mxPoint x="547.0000000000009" y="68" as="sourcePoint" />
            <mxPoint x="650" y="120" as="targetPoint" />
          </mxGeometry>
        </mxCell>
        <mxCell id="uLvGfTFa8WDCAzrJC_-o-65" value="&lt;span style=&quot;border-bottom: 1px dotted&quot;&gt;mobile_no&lt;/span&gt;" style="ellipse;whiteSpace=wrap;html=1;align=center;strokeColor=#000000;verticalAlign=middle;fontFamily=Helvetica;fontSize=12;fontColor=#000000;fontStyle=1;fillColor=#FFFFFF;" parent="1" vertex="1">
          <mxGeometry x="531" y="80" width="100" height="40" as="geometry" />
        </mxCell>
        <mxCell id="uLvGfTFa8WDCAzrJC_-o-66" value="" style="endArrow=none;html=1;rounded=0;strokeColor=default;strokeWidth=2;align=center;verticalAlign=middle;fontFamily=Helvetica;fontSize=12;fontColor=#000000;fontStyle=1;labelBackgroundColor=default;jumpSize=13;startSize=9;endSize=9;exitX=0.75;exitY=0;exitDx=0;exitDy=0;entryX=0;entryY=0.5;entryDx=0;entryDy=0;" parent="1" source="dPPaEK9G9NtgSY-2lidK-16" target="uLvGfTFa8WDCAzrJC_-o-65" edge="1">
          <mxGeometry relative="1" as="geometry">
            <mxPoint x="520" y="150" as="sourcePoint" />
            <mxPoint x="680" y="150" as="targetPoint" />
          </mxGeometry>
        </mxCell>
        <mxCell id="uLvGfTFa8WDCAzrJC_-o-67" value="hotel_id" style="ellipse;whiteSpace=wrap;html=1;align=center;fontStyle=4;strokeColor=#000000;verticalAlign=middle;fontFamily=Helvetica;fontSize=12;fontColor=#000000;fillColor=#FFFFFF;" parent="1" vertex="1">
          <mxGeometry x="-59" y="273" width="100" height="40" as="geometry" />
        </mxCell>
        <mxCell id="uLvGfTFa8WDCAzrJC_-o-68" value="emp_id" style="ellipse;whiteSpace=wrap;html=1;align=center;strokeColor=#000000;verticalAlign=middle;fontFamily=Helvetica;fontSize=12;fontColor=#000000;fontStyle=1;fillColor=#FFFFFF;" parent="1" vertex="1">
          <mxGeometry x="-40" y="463" width="100" height="40" as="geometry" />
        </mxCell>
        <mxCell id="uLvGfTFa8WDCAzrJC_-o-69" value="city" style="ellipse;whiteSpace=wrap;html=1;align=center;strokeColor=#000000;verticalAlign=middle;fontFamily=Helvetica;fontSize=12;fontColor=#000000;fontStyle=1;fillColor=#FFFFFF;" parent="1" vertex="1">
          <mxGeometry x="-114" y="413" width="100" height="40" as="geometry" />
        </mxCell>
        <mxCell id="uLvGfTFa8WDCAzrJC_-o-70" value="address" style="ellipse;whiteSpace=wrap;html=1;align=center;strokeColor=#000000;verticalAlign=middle;fontFamily=Helvetica;fontSize=12;fontColor=#000000;fontStyle=1;fillColor=#FFFFFF;" parent="1" vertex="1">
          <mxGeometry x="-120" y="360" width="100" height="40" as="geometry" />
        </mxCell>
        <mxCell id="uLvGfTFa8WDCAzrJC_-o-71" value="" style="endArrow=none;html=1;rounded=0;strokeColor=default;strokeWidth=2;align=center;verticalAlign=middle;fontFamily=Helvetica;fontSize=12;fontColor=#000000;fontStyle=1;labelBackgroundColor=default;jumpSize=13;startSize=9;endSize=9;exitX=1;exitY=0.5;exitDx=0;exitDy=0;entryX=0;entryY=0.5;entryDx=0;entryDy=0;" parent="1" source="uLvGfTFa8WDCAzrJC_-o-70" target="dPPaEK9G9NtgSY-2lidK-15" edge="1">
          <mxGeometry relative="1" as="geometry">
            <mxPoint x="-10" y="380" as="sourcePoint" />
            <mxPoint x="150" y="380" as="targetPoint" />
          </mxGeometry>
        </mxCell>
        <mxCell id="uLvGfTFa8WDCAzrJC_-o-72" value="" style="endArrow=none;html=1;rounded=0;strokeColor=default;strokeWidth=2;align=center;verticalAlign=middle;fontFamily=Helvetica;fontSize=12;fontColor=#000000;fontStyle=1;labelBackgroundColor=default;jumpSize=13;startSize=9;endSize=9;exitX=1;exitY=0.5;exitDx=0;exitDy=0;" parent="1" source="uLvGfTFa8WDCAzrJC_-o-69" edge="1">
          <mxGeometry relative="1" as="geometry">
            <mxPoint x="-60" y="470" as="sourcePoint" />
            <mxPoint x="40" y="420" as="targetPoint" />
          </mxGeometry>
        </mxCell>
        <mxCell id="uLvGfTFa8WDCAzrJC_-o-73" value="" style="endArrow=none;html=1;rounded=0;strokeColor=default;strokeWidth=2;align=center;verticalAlign=middle;fontFamily=Helvetica;fontSize=12;fontColor=#000000;fontStyle=1;labelBackgroundColor=default;jumpSize=13;startSize=9;endSize=9;exitX=0.5;exitY=0;exitDx=0;exitDy=0;entryX=0;entryY=1;entryDx=0;entryDy=0;" parent="1" source="uLvGfTFa8WDCAzrJC_-o-68" target="dPPaEK9G9NtgSY-2lidK-15" edge="1">
          <mxGeometry relative="1" as="geometry">
            <mxPoint x="50" y="480" as="sourcePoint" />
            <mxPoint x="210" y="480" as="targetPoint" />
          </mxGeometry>
        </mxCell>
        <mxCell id="uLvGfTFa8WDCAzrJC_-o-74" value="" style="endArrow=none;html=1;rounded=0;strokeColor=default;strokeWidth=2;align=center;verticalAlign=middle;fontFamily=Helvetica;fontSize=12;fontColor=#000000;fontStyle=1;labelBackgroundColor=default;jumpSize=13;startSize=9;endSize=9;exitX=0.59;exitY=1.025;exitDx=0;exitDy=0;exitPerimeter=0;" parent="1" source="uLvGfTFa8WDCAzrJC_-o-67" target="dPPaEK9G9NtgSY-2lidK-15" edge="1">
          <mxGeometry relative="1" as="geometry">
            <mxPoint x="70" y="370" as="sourcePoint" />
            <mxPoint x="230" y="370" as="targetPoint" />
          </mxGeometry>
        </mxCell>
        <mxCell id="uLvGfTFa8WDCAzrJC_-o-75" value="room_id" style="ellipse;whiteSpace=wrap;html=1;align=center;fontStyle=4;strokeColor=#000000;verticalAlign=middle;fontFamily=Helvetica;fontSize=12;fontColor=#000000;fillColor=#FFFFFF;" parent="1" vertex="1">
          <mxGeometry x="350" y="290" width="100" height="40" as="geometry" />
        </mxCell>
        <mxCell id="uLvGfTFa8WDCAzrJC_-o-76" value="hotel_id" style="ellipse;whiteSpace=wrap;html=1;align=center;strokeColor=#000000;verticalAlign=middle;fontFamily=Helvetica;fontSize=12;fontColor=#000000;fontStyle=1;fillColor=#FFFFFF;" parent="1" vertex="1">
          <mxGeometry x="250" y="290" width="100" height="40" as="geometry" />
        </mxCell>
        <mxCell id="uLvGfTFa8WDCAzrJC_-o-77" value="floor_id" style="ellipse;whiteSpace=wrap;html=1;align=center;strokeColor=#000000;verticalAlign=middle;fontFamily=Helvetica;fontSize=12;fontColor=#000000;fontStyle=1;fillColor=#FFFFFF;" parent="1" vertex="1">
          <mxGeometry x="450" y="290" width="100" height="40" as="geometry" />
        </mxCell>
        <mxCell id="uLvGfTFa8WDCAzrJC_-o-78" value="room_class" style="ellipse;whiteSpace=wrap;html=1;align=center;strokeColor=#000000;verticalAlign=middle;fontFamily=Helvetica;fontSize=12;fontColor=#000000;fontStyle=1;fillColor=#FFFFFF;" parent="1" vertex="1">
          <mxGeometry x="150" y="290" width="100" height="40" as="geometry" />
        </mxCell>
        <mxCell id="uLvGfTFa8WDCAzrJC_-o-79" value="room_status" style="ellipse;whiteSpace=wrap;html=1;align=center;strokeColor=#000000;verticalAlign=middle;fontFamily=Helvetica;fontSize=12;fontColor=#000000;fontStyle=1;fillColor=#FFFFFF;" parent="1" vertex="1">
          <mxGeometry x="550" y="290" width="100" height="40" as="geometry" />
        </mxCell>
        <mxCell id="uLvGfTFa8WDCAzrJC_-o-80" value="" style="endArrow=none;html=1;rounded=0;strokeColor=default;strokeWidth=2;align=center;verticalAlign=middle;fontFamily=Helvetica;fontSize=12;fontColor=#000000;fontStyle=1;labelBackgroundColor=default;jumpSize=13;startSize=9;endSize=9;exitX=1;exitY=1;exitDx=0;exitDy=0;entryX=0.25;entryY=0;entryDx=0;entryDy=0;" parent="1" source="uLvGfTFa8WDCAzrJC_-o-78" target="dPPaEK9G9NtgSY-2lidK-17" edge="1">
          <mxGeometry relative="1" as="geometry">
            <mxPoint x="280" y="370" as="sourcePoint" />
            <mxPoint x="440" y="370" as="targetPoint" />
          </mxGeometry>
        </mxCell>
        <mxCell id="uLvGfTFa8WDCAzrJC_-o-81" value="" style="endArrow=none;html=1;rounded=0;strokeColor=default;strokeWidth=2;align=center;verticalAlign=middle;fontFamily=Helvetica;fontSize=12;fontColor=#000000;fontStyle=1;labelBackgroundColor=default;jumpSize=13;startSize=9;endSize=9;entryX=0.34;entryY=1;entryDx=0;entryDy=0;entryPerimeter=0;exitX=0.89;exitY=0.055;exitDx=0;exitDy=0;exitPerimeter=0;" parent="1" source="dPPaEK9G9NtgSY-2lidK-17" target="uLvGfTFa8WDCAzrJC_-o-79" edge="1">
          <mxGeometry relative="1" as="geometry">
            <mxPoint x="410" y="370" as="sourcePoint" />
            <mxPoint x="570" y="370" as="targetPoint" />
          </mxGeometry>
        </mxCell>
        <mxCell id="uLvGfTFa8WDCAzrJC_-o-82" value="" style="endArrow=none;html=1;rounded=0;strokeColor=default;strokeWidth=2;align=center;verticalAlign=middle;fontFamily=Helvetica;fontSize=12;fontColor=#000000;fontStyle=1;labelBackgroundColor=default;jumpSize=13;startSize=9;endSize=9;exitX=0.74;exitY=0.95;exitDx=0;exitDy=0;exitPerimeter=0;" parent="1" source="uLvGfTFa8WDCAzrJC_-o-76" target="dPPaEK9G9NtgSY-2lidK-17" edge="1">
          <mxGeometry relative="1" as="geometry">
            <mxPoint x="360" y="380" as="sourcePoint" />
            <mxPoint x="520" y="380" as="targetPoint" />
          </mxGeometry>
        </mxCell>
        <mxCell id="uLvGfTFa8WDCAzrJC_-o-83" value="" style="endArrow=none;html=1;rounded=0;strokeColor=default;strokeWidth=2;align=center;verticalAlign=middle;fontFamily=Helvetica;fontSize=12;fontColor=#000000;fontStyle=1;labelBackgroundColor=default;jumpSize=13;startSize=9;endSize=9;" parent="1" source="dPPaEK9G9NtgSY-2lidK-17" target="uLvGfTFa8WDCAzrJC_-o-75" edge="1">
          <mxGeometry relative="1" as="geometry">
            <mxPoint x="396" y="223" as="sourcePoint" />
            <mxPoint x="396" y="223" as="targetPoint" />
          </mxGeometry>
        </mxCell>
        <mxCell id="uLvGfTFa8WDCAzrJC_-o-84" value="" style="endArrow=none;html=1;rounded=0;strokeColor=default;strokeWidth=2;align=center;verticalAlign=middle;fontFamily=Helvetica;fontSize=12;fontColor=#000000;fontStyle=1;labelBackgroundColor=default;jumpSize=13;startSize=9;endSize=9;" parent="1" source="dPPaEK9G9NtgSY-2lidK-17" target="uLvGfTFa8WDCAzrJC_-o-77" edge="1">
          <mxGeometry relative="1" as="geometry">
            <mxPoint x="450" y="370" as="sourcePoint" />
            <mxPoint x="610" y="370" as="targetPoint" />
          </mxGeometry>
        </mxCell>
        <mxCell id="uLvGfTFa8WDCAzrJC_-o-85" value="guest_id" style="ellipse;whiteSpace=wrap;html=1;align=center;fontStyle=4;strokeColor=#000000;verticalAlign=middle;fontFamily=Helvetica;fontSize=12;fontColor=#000000;fillColor=#FFFFFF;" parent="1" vertex="1">
          <mxGeometry x="880" y="290" width="100" height="40" as="geometry" />
        </mxCell>
        <mxCell id="uLvGfTFa8WDCAzrJC_-o-86" value="name" style="ellipse;whiteSpace=wrap;html=1;align=center;strokeColor=#000000;verticalAlign=middle;fontFamily=Helvetica;fontSize=12;fontColor=#000000;fontStyle=1;fillColor=#FFFFFF;" parent="1" vertex="1">
          <mxGeometry x="780" y="283" width="100" height="40" as="geometry" />
        </mxCell>
        <mxCell id="uLvGfTFa8WDCAzrJC_-o-87" value="&lt;span style=&quot;border-bottom: 1px dotted&quot;&gt;phone_no&lt;/span&gt;" style="ellipse;whiteSpace=wrap;html=1;align=center;strokeColor=#000000;verticalAlign=middle;fontFamily=Helvetica;fontSize=12;fontColor=#000000;fontStyle=1;fillColor=#FFFFFF;" parent="1" vertex="1">
          <mxGeometry x="680" y="290" width="100" height="40" as="geometry" />
        </mxCell>
        <mxCell id="uLvGfTFa8WDCAzrJC_-o-88" value="" style="endArrow=none;html=1;rounded=0;strokeColor=default;strokeWidth=2;align=center;verticalAlign=middle;fontFamily=Helvetica;fontSize=12;fontColor=#000000;fontStyle=1;labelBackgroundColor=default;jumpSize=13;startSize=9;endSize=9;exitX=0.646;exitY=0.067;exitDx=0;exitDy=0;exitPerimeter=0;" parent="1" source="uLvGfTFa8WDCAzrJC_-o-86" target="uLvGfTFa8WDCAzrJC_-o-89" edge="1">
          <mxGeometry relative="1" as="geometry">
            <mxPoint x="830" y="280" as="sourcePoint" />
            <mxPoint x="880" y="260" as="targetPoint" />
          </mxGeometry>
        </mxCell>
        <mxCell id="uLvGfTFa8WDCAzrJC_-o-89" value="&lt;span style=&quot;font-weight: normal;&quot;&gt;f_name&lt;/span&gt;" style="ellipse;whiteSpace=wrap;html=1;align=center;strokeColor=#000000;verticalAlign=middle;fontFamily=Helvetica;fontSize=12;fontColor=#000000;fontStyle=1;fillColor=#FFFFFF;" parent="1" vertex="1">
          <mxGeometry x="840" y="220" width="100" height="40" as="geometry" />
        </mxCell>
        <mxCell id="uLvGfTFa8WDCAzrJC_-o-90" value="&lt;span style=&quot;font-weight: normal;&quot;&gt;l_name&lt;/span&gt;" style="ellipse;whiteSpace=wrap;html=1;align=center;strokeColor=#000000;verticalAlign=middle;fontFamily=Helvetica;fontSize=12;fontColor=#000000;fontStyle=1;fillColor=#FFFFFF;" parent="1" vertex="1">
          <mxGeometry x="740" y="220" width="100" height="40" as="geometry" />
        </mxCell>
        <mxCell id="uLvGfTFa8WDCAzrJC_-o-91" value="" style="endArrow=none;html=1;rounded=0;strokeColor=default;strokeWidth=2;align=center;verticalAlign=middle;fontFamily=Helvetica;fontSize=12;fontColor=#000000;fontStyle=1;labelBackgroundColor=default;jumpSize=13;startSize=9;endSize=9;entryX=0.5;entryY=0;entryDx=0;entryDy=0;" parent="1" target="uLvGfTFa8WDCAzrJC_-o-86" edge="1">
          <mxGeometry relative="1" as="geometry">
            <mxPoint x="780" y="260" as="sourcePoint" />
            <mxPoint x="930" y="280" as="targetPoint" />
          </mxGeometry>
        </mxCell>
        <mxCell id="uLvGfTFa8WDCAzrJC_-o-92" value="&lt;span style=&quot;border-bottom: 1px dotted&quot;&gt;email_address&lt;/span&gt;" style="ellipse;whiteSpace=wrap;html=1;align=center;strokeColor=#000000;verticalAlign=middle;fontFamily=Helvetica;fontSize=12;fontColor=#000000;fontStyle=1;fillColor=#FFFFFF;" parent="1" vertex="1">
          <mxGeometry x="940" y="323" width="100" height="40" as="geometry" />
        </mxCell>
        <mxCell id="uLvGfTFa8WDCAzrJC_-o-93" value="" style="endArrow=none;html=1;rounded=0;strokeColor=default;strokeWidth=2;align=center;verticalAlign=middle;fontFamily=Helvetica;fontSize=12;fontColor=#000000;fontStyle=1;labelBackgroundColor=default;jumpSize=13;startSize=9;endSize=9;exitX=0.61;exitY=1.025;exitDx=0;exitDy=0;exitPerimeter=0;" parent="1" source="uLvGfTFa8WDCAzrJC_-o-87" target="PLzlTSLsuADTGb6DuBat-44" edge="1">
          <mxGeometry relative="1" as="geometry">
            <mxPoint x="770" y="360" as="sourcePoint" />
            <mxPoint x="769.4172661870498" y="370.4999999999991" as="targetPoint" />
          </mxGeometry>
        </mxCell>
        <mxCell id="uLvGfTFa8WDCAzrJC_-o-94" value="" style="endArrow=none;html=1;rounded=0;strokeColor=default;strokeWidth=2;align=center;verticalAlign=middle;fontFamily=Helvetica;fontSize=12;fontColor=#000000;fontStyle=1;labelBackgroundColor=default;jumpSize=13;startSize=9;endSize=9;exitX=0.3;exitY=0.925;exitDx=0;exitDy=0;exitPerimeter=0;entryX=0.373;entryY=-0.006;entryDx=0;entryDy=0;entryPerimeter=0;" parent="1" source="uLvGfTFa8WDCAzrJC_-o-86" target="PLzlTSLsuADTGb6DuBat-44" edge="1">
          <mxGeometry relative="1" as="geometry">
            <mxPoint x="900" y="360" as="sourcePoint" />
            <mxPoint x="757.0099999999993" y="370.97999999999956" as="targetPoint" />
          </mxGeometry>
        </mxCell>
        <mxCell id="uLvGfTFa8WDCAzrJC_-o-95" value="" style="endArrow=none;html=1;rounded=0;strokeColor=default;strokeWidth=2;align=center;verticalAlign=middle;fontFamily=Helvetica;fontSize=12;fontColor=#000000;fontStyle=1;labelBackgroundColor=default;jumpSize=13;startSize=9;endSize=9;exitX=0;exitY=1;exitDx=0;exitDy=0;entryX=0.5;entryY=0;entryDx=0;entryDy=0;" parent="1" source="uLvGfTFa8WDCAzrJC_-o-85" target="PLzlTSLsuADTGb6DuBat-44" edge="1">
          <mxGeometry relative="1" as="geometry">
            <mxPoint x="940" y="380" as="sourcePoint" />
            <mxPoint x="790.9999999999991" y="370.4999999999991" as="targetPoint" />
          </mxGeometry>
        </mxCell>
        <mxCell id="uLvGfTFa8WDCAzrJC_-o-96" value="" style="endArrow=none;html=1;rounded=0;strokeColor=default;strokeWidth=2;align=center;verticalAlign=middle;fontFamily=Helvetica;fontSize=12;fontColor=#000000;fontStyle=1;labelBackgroundColor=default;jumpSize=13;startSize=9;endSize=9;exitX=0;exitY=1;exitDx=0;exitDy=0;" parent="1" source="uLvGfTFa8WDCAzrJC_-o-92" edge="1">
          <mxGeometry relative="1" as="geometry">
            <mxPoint x="950" y="420" as="sourcePoint" />
            <mxPoint x="840" y="390" as="targetPoint" />
          </mxGeometry>
        </mxCell>
        <mxCell id="uLvGfTFa8WDCAzrJC_-o-97" value="server_id" style="ellipse;whiteSpace=wrap;html=1;align=center;fontStyle=4;strokeColor=#000000;verticalAlign=middle;fontFamily=Helvetica;fontSize=12;fontColor=#000000;fillColor=#FFFFFF;" parent="1" vertex="1">
          <mxGeometry x="130" y="233" width="100" height="40" as="geometry" />
        </mxCell>
        <mxCell id="uLvGfTFa8WDCAzrJC_-o-98" value="server_type" style="ellipse;whiteSpace=wrap;html=1;align=center;strokeColor=#000000;verticalAlign=middle;fontFamily=Helvetica;fontSize=12;fontColor=#000000;fontStyle=1;fillColor=#FFFFFF;" parent="1" vertex="1">
          <mxGeometry x="130" y="173" width="100" height="40" as="geometry" />
        </mxCell>
        <mxCell id="uLvGfTFa8WDCAzrJC_-o-99" value="chef_id" style="ellipse;whiteSpace=wrap;html=1;align=center;fontStyle=4;strokeColor=#000000;verticalAlign=middle;fontFamily=Helvetica;fontSize=12;fontColor=#000000;fillColor=#FFFFFF;" parent="1" vertex="1">
          <mxGeometry x="540" y="150" width="100" height="40" as="geometry" />
        </mxCell>
        <mxCell id="uLvGfTFa8WDCAzrJC_-o-100" value="food_item" style="ellipse;whiteSpace=wrap;html=1;align=center;strokeColor=#000000;verticalAlign=middle;fontFamily=Helvetica;fontSize=12;fontColor=#000000;fontStyle=1;fillColor=#FFFFFF;" parent="1" vertex="1">
          <mxGeometry x="650" y="150" width="100" height="40" as="geometry" />
        </mxCell>
        <mxCell id="uLvGfTFa8WDCAzrJC_-o-101" value="" style="endArrow=none;html=1;rounded=0;strokeColor=default;strokeWidth=2;align=center;verticalAlign=middle;fontFamily=Helvetica;fontSize=12;fontColor=#000000;fontStyle=1;labelBackgroundColor=default;jumpSize=13;startSize=9;endSize=9;exitX=1;exitY=0.5;exitDx=0;exitDy=0;entryX=0;entryY=0.5;entryDx=0;entryDy=0;" parent="1" source="uLvGfTFa8WDCAzrJC_-o-97" target="uLvGfTFa8WDCAzrJC_-o-13" edge="1">
          <mxGeometry relative="1" as="geometry">
            <mxPoint x="260" y="290" as="sourcePoint" />
            <mxPoint x="420" y="290" as="targetPoint" />
          </mxGeometry>
        </mxCell>
        <mxCell id="uLvGfTFa8WDCAzrJC_-o-102" value="" style="endArrow=none;html=1;rounded=0;strokeColor=default;strokeWidth=2;align=center;verticalAlign=middle;fontFamily=Helvetica;fontSize=12;fontColor=#000000;fontStyle=1;labelBackgroundColor=default;jumpSize=13;startSize=9;endSize=9;exitX=1;exitY=0.5;exitDx=0;exitDy=0;entryX=0;entryY=0.5;entryDx=0;entryDy=0;" parent="1" source="uLvGfTFa8WDCAzrJC_-o-98" target="uLvGfTFa8WDCAzrJC_-o-13" edge="1">
          <mxGeometry relative="1" as="geometry">
            <mxPoint x="260" y="180" as="sourcePoint" />
            <mxPoint x="420" y="180" as="targetPoint" />
          </mxGeometry>
        </mxCell>
        <mxCell id="uLvGfTFa8WDCAzrJC_-o-103" value="" style="endArrow=none;html=1;rounded=0;strokeColor=default;strokeWidth=2;align=center;verticalAlign=middle;fontFamily=Helvetica;fontSize=12;fontColor=#000000;fontStyle=1;labelBackgroundColor=default;jumpSize=13;startSize=9;endSize=9;exitX=0.5;exitY=0;exitDx=0;exitDy=0;" parent="1" source="uLvGfTFa8WDCAzrJC_-o-14" target="uLvGfTFa8WDCAzrJC_-o-99" edge="1">
          <mxGeometry relative="1" as="geometry">
            <mxPoint x="480" y="190" as="sourcePoint" />
            <mxPoint x="640" y="190" as="targetPoint" />
          </mxGeometry>
        </mxCell>
        <mxCell id="uLvGfTFa8WDCAzrJC_-o-104" value="" style="endArrow=none;html=1;rounded=0;strokeColor=default;strokeWidth=2;align=center;verticalAlign=middle;fontFamily=Helvetica;fontSize=12;fontColor=#000000;fontStyle=1;labelBackgroundColor=default;jumpSize=13;startSize=9;endSize=9;entryX=0;entryY=1;entryDx=0;entryDy=0;exitX=0.75;exitY=0;exitDx=0;exitDy=0;" parent="1" source="uLvGfTFa8WDCAzrJC_-o-14" target="uLvGfTFa8WDCAzrJC_-o-100" edge="1">
          <mxGeometry relative="1" as="geometry">
            <mxPoint x="640" y="280" as="sourcePoint" />
            <mxPoint x="800" y="280" as="targetPoint" />
          </mxGeometry>
        </mxCell>
        <mxCell id="uLvGfTFa8WDCAzrJC_-o-116" value="gender" style="ellipse;whiteSpace=wrap;html=1;align=center;strokeColor=#000000;verticalAlign=middle;fontFamily=Helvetica;fontSize=12;fontColor=#000000;fontStyle=1;labelBackgroundColor=default;fillColor=#FFFFFF;" parent="1" vertex="1">
          <mxGeometry x="230" y="80" width="100" height="40" as="geometry" />
        </mxCell>
        <mxCell id="uLvGfTFa8WDCAzrJC_-o-118" value="" style="endArrow=none;html=1;rounded=0;strokeColor=default;strokeWidth=2;align=center;verticalAlign=middle;fontFamily=Helvetica;fontSize=12;fontColor=#ffffff;fontStyle=1;labelBackgroundColor=default;jumpSize=13;startSize=9;endSize=9;exitX=0.959;exitY=0.705;exitDx=0;exitDy=0;exitPerimeter=0;entryX=0;entryY=0;entryDx=0;entryDy=0;" parent="1" source="uLvGfTFa8WDCAzrJC_-o-116" target="dPPaEK9G9NtgSY-2lidK-16" edge="1">
          <mxGeometry relative="1" as="geometry">
            <mxPoint x="320" y="80" as="sourcePoint" />
            <mxPoint x="390" y="150" as="targetPoint" />
          </mxGeometry>
        </mxCell>
        <mxCell id="1YrKZovokf1GKeR1xNj7-1" value="" style="endArrow=none;html=1;rounded=0;strokeColor=default;strokeWidth=2;align=center;verticalAlign=middle;fontFamily=Helvetica;fontSize=12;fontColor=#000000;fontStyle=1;labelBackgroundColor=default;jumpSize=13;startSize=9;endSize=9;exitX=0.5;exitY=0;exitDx=0;exitDy=0;" parent="1" source="1YrKZovokf1GKeR1xNj7-3" target="uLvGfTFa8WDCAzrJC_-o-37" edge="1">
          <mxGeometry relative="1" as="geometry">
            <mxPoint x="-10" y="660" as="sourcePoint" />
            <mxPoint x="46" y="625" as="targetPoint" />
            <Array as="points" />
          </mxGeometry>
        </mxCell>
        <mxCell id="1YrKZovokf1GKeR1xNj7-3" value="feature_id" style="ellipse;whiteSpace=wrap;html=1;align=center;fontStyle=4;strokeColor=#000000;verticalAlign=middle;fontFamily=Helvetica;fontSize=12;fontColor=#000000;fillColor=#FFFFFF;" parent="1" vertex="1">
          <mxGeometry x="-160" y="658" width="100" height="40" as="geometry" />
        </mxCell>
        <mxCell id="1YrKZovokf1GKeR1xNj7-5" value="feature_name" style="ellipse;whiteSpace=wrap;html=1;align=center;strokeColor=#000000;verticalAlign=middle;fontFamily=Helvetica;fontSize=12;fontColor=#000000;fontStyle=1;fillColor=#FFFFFF;" parent="1" vertex="1">
          <mxGeometry x="-50" y="658" width="100" height="40" as="geometry" />
        </mxCell>
        <mxCell id="1YrKZovokf1GKeR1xNj7-6" value="bedtype_id" style="ellipse;whiteSpace=wrap;html=1;align=center;fontStyle=4;strokeColor=#000000;verticalAlign=middle;fontFamily=Helvetica;fontSize=12;fontColor=#000000;fillColor=#FFFFFF;" parent="1" vertex="1">
          <mxGeometry x="70" y="658" width="100" height="40" as="geometry" />
        </mxCell>
        <mxCell id="1YrKZovokf1GKeR1xNj7-7" value="" style="endArrow=none;html=1;rounded=0;strokeColor=default;strokeWidth=2;align=center;verticalAlign=middle;fontFamily=Helvetica;fontSize=12;fontColor=#000000;fontStyle=1;labelBackgroundColor=default;jumpSize=13;startSize=9;endSize=9;exitX=1;exitY=0;exitDx=0;exitDy=0;entryX=0.25;entryY=1;entryDx=0;entryDy=0;" parent="1" source="1YrKZovokf1GKeR1xNj7-6" target="uLvGfTFa8WDCAzrJC_-o-40" edge="1">
          <mxGeometry relative="1" as="geometry">
            <mxPoint x="21" y="676" as="sourcePoint" />
            <mxPoint x="61" y="643" as="targetPoint" />
            <Array as="points" />
          </mxGeometry>
        </mxCell>
        <mxCell id="1YrKZovokf1GKeR1xNj7-8" value="feature_name" style="ellipse;whiteSpace=wrap;html=1;align=center;strokeColor=#000000;verticalAlign=middle;fontFamily=Helvetica;fontSize=12;fontColor=#000000;fontStyle=1;fillColor=#FFFFFF;" parent="1" vertex="1">
          <mxGeometry x="180" y="660" width="100" height="40" as="geometry" />
        </mxCell>
        <mxCell id="1YrKZovokf1GKeR1xNj7-9" value="" style="endArrow=none;html=1;rounded=0;strokeColor=default;strokeWidth=2;align=center;verticalAlign=middle;fontFamily=Helvetica;fontSize=12;fontColor=#000000;fontStyle=1;labelBackgroundColor=default;jumpSize=13;startSize=9;endSize=9;entryX=0.5;entryY=1;entryDx=0;entryDy=0;" parent="1" source="1YrKZovokf1GKeR1xNj7-8" target="uLvGfTFa8WDCAzrJC_-o-40" edge="1">
          <mxGeometry relative="1" as="geometry">
            <mxPoint x="251" y="672" as="sourcePoint" />
            <mxPoint x="266" y="623" as="targetPoint" />
            <Array as="points" />
          </mxGeometry>
        </mxCell>
        <mxCell id="1YrKZovokf1GKeR1xNj7-10" value="status_id" style="ellipse;whiteSpace=wrap;html=1;align=center;fontStyle=4;strokeColor=#000000;verticalAlign=middle;fontFamily=Helvetica;fontSize=12;fontColor=#000000;fillColor=#FFFFFF;" parent="1" vertex="1">
          <mxGeometry x="290" y="660" width="100" height="40" as="geometry" />
        </mxCell>
        <mxCell id="1YrKZovokf1GKeR1xNj7-11" value="status_name" style="ellipse;whiteSpace=wrap;html=1;align=center;strokeColor=#000000;verticalAlign=middle;fontFamily=Helvetica;fontSize=12;fontColor=#000000;fontStyle=1;fillColor=#FFFFFF;" parent="1" vertex="1">
          <mxGeometry x="396" y="658" width="100" height="40" as="geometry" />
        </mxCell>
        <mxCell id="1YrKZovokf1GKeR1xNj7-12" value="" style="endArrow=none;html=1;rounded=0;strokeColor=default;strokeWidth=2;align=center;verticalAlign=middle;fontFamily=Helvetica;fontSize=12;fontColor=#000000;fontStyle=1;labelBackgroundColor=default;jumpSize=13;startSize=9;endSize=9;exitX=0.5;exitY=0;exitDx=0;exitDy=0;" parent="1" source="1YrKZovokf1GKeR1xNj7-10" target="uLvGfTFa8WDCAzrJC_-o-43" edge="1">
          <mxGeometry relative="1" as="geometry">
            <mxPoint x="361" y="670" as="sourcePoint" />
            <mxPoint x="349" y="645" as="targetPoint" />
            <Array as="points" />
          </mxGeometry>
        </mxCell>
        <mxCell id="1YrKZovokf1GKeR1xNj7-13" value="" style="endArrow=none;html=1;rounded=0;strokeColor=default;strokeWidth=2;align=center;verticalAlign=middle;fontFamily=Helvetica;fontSize=12;fontColor=#000000;fontStyle=1;labelBackgroundColor=default;jumpSize=13;startSize=9;endSize=9;" parent="1" source="1YrKZovokf1GKeR1xNj7-11" target="uLvGfTFa8WDCAzrJC_-o-43" edge="1">
          <mxGeometry relative="1" as="geometry">
            <mxPoint x="450" y="730" as="sourcePoint" />
            <mxPoint x="473" y="668" as="targetPoint" />
            <Array as="points" />
          </mxGeometry>
        </mxCell>
        <mxCell id="1YrKZovokf1GKeR1xNj7-14" value="floor_id" style="ellipse;whiteSpace=wrap;html=1;align=center;fontStyle=4;strokeColor=#000000;verticalAlign=middle;fontFamily=Helvetica;fontSize=12;fontColor=#000000;fillColor=#FFFFFF;" parent="1" vertex="1">
          <mxGeometry x="500" y="658" width="100" height="40" as="geometry" />
        </mxCell>
        <mxCell id="1YrKZovokf1GKeR1xNj7-15" value="status_name" style="ellipse;whiteSpace=wrap;html=1;align=center;strokeColor=#000000;verticalAlign=middle;fontFamily=Helvetica;fontSize=12;fontColor=#000000;fontStyle=1;fillColor=#FFFFFF;" parent="1" vertex="1">
          <mxGeometry x="600" y="660" width="100" height="40" as="geometry" />
        </mxCell>
        <mxCell id="1YrKZovokf1GKeR1xNj7-16" value="status_name" style="ellipse;whiteSpace=wrap;html=1;align=center;strokeColor=#000000;verticalAlign=middle;fontFamily=Helvetica;fontSize=12;fontColor=#000000;fontStyle=1;fillColor=#FFFFFF;" parent="1" vertex="1">
          <mxGeometry x="700" y="660" width="100" height="40" as="geometry" />
        </mxCell>
        <mxCell id="1YrKZovokf1GKeR1xNj7-17" value="" style="endArrow=none;html=1;rounded=0;strokeColor=default;strokeWidth=2;align=center;verticalAlign=middle;fontFamily=Helvetica;fontSize=12;fontColor=#000000;fontStyle=1;labelBackgroundColor=default;jumpSize=13;startSize=9;endSize=9;" parent="1" source="1YrKZovokf1GKeR1xNj7-14" target="uLvGfTFa8WDCAzrJC_-o-44" edge="1">
          <mxGeometry relative="1" as="geometry">
            <mxPoint x="537" y="731" as="sourcePoint" />
            <mxPoint x="494" y="668" as="targetPoint" />
            <Array as="points" />
          </mxGeometry>
        </mxCell>
        <mxCell id="1YrKZovokf1GKeR1xNj7-18" value="" style="endArrow=none;html=1;rounded=0;strokeColor=default;strokeWidth=2;align=center;verticalAlign=middle;fontFamily=Helvetica;fontSize=12;fontColor=#000000;fontStyle=1;labelBackgroundColor=default;jumpSize=13;startSize=9;endSize=9;entryX=0.572;entryY=1.036;entryDx=0;entryDy=0;entryPerimeter=0;" parent="1" source="1YrKZovokf1GKeR1xNj7-15" target="uLvGfTFa8WDCAzrJC_-o-44" edge="1">
          <mxGeometry relative="1" as="geometry">
            <mxPoint x="689" y="721" as="sourcePoint" />
            <mxPoint x="726" y="668" as="targetPoint" />
            <Array as="points" />
          </mxGeometry>
        </mxCell>
        <mxCell id="1YrKZovokf1GKeR1xNj7-19" value="" style="endArrow=none;html=1;rounded=0;strokeColor=default;strokeWidth=2;align=center;verticalAlign=middle;fontFamily=Helvetica;fontSize=12;fontColor=#000000;fontStyle=1;labelBackgroundColor=default;jumpSize=13;startSize=9;endSize=9;entryX=0.844;entryY=1.105;entryDx=0;entryDy=0;entryPerimeter=0;" parent="1" source="1YrKZovokf1GKeR1xNj7-16" target="uLvGfTFa8WDCAzrJC_-o-44" edge="1">
          <mxGeometry relative="1" as="geometry">
            <mxPoint x="771" y="720" as="sourcePoint" />
            <mxPoint x="747" y="669" as="targetPoint" />
            <Array as="points" />
          </mxGeometry>
        </mxCell>
        <mxCell id="1YrKZovokf1GKeR1xNj7-20" value="paymment_id" style="ellipse;whiteSpace=wrap;html=1;align=center;fontStyle=4;strokeColor=#000000;verticalAlign=middle;fontFamily=Helvetica;fontSize=12;fontColor=#000000;fillColor=#FFFFFF;" parent="1" vertex="1">
          <mxGeometry x="800" y="660" width="100" height="40" as="geometry" />
        </mxCell>
        <mxCell id="1YrKZovokf1GKeR1xNj7-21" value="payment_check" style="ellipse;whiteSpace=wrap;html=1;align=center;strokeColor=#000000;verticalAlign=middle;fontFamily=Helvetica;fontSize=12;fontColor=#000000;fontStyle=1;fillColor=#FFFFFF;" parent="1" vertex="1">
          <mxGeometry x="910" y="660" width="100" height="40" as="geometry" />
        </mxCell>
        <mxCell id="1YrKZovokf1GKeR1xNj7-22" value="" style="endArrow=none;html=1;rounded=0;strokeColor=default;strokeWidth=2;align=center;verticalAlign=middle;fontFamily=Helvetica;fontSize=12;fontColor=#000000;fontStyle=1;labelBackgroundColor=default;jumpSize=13;startSize=9;endSize=9;exitX=0.406;exitY=0.038;exitDx=0;exitDy=0;exitPerimeter=0;entryX=0.25;entryY=1;entryDx=0;entryDy=0;" parent="1" source="1YrKZovokf1GKeR1xNj7-20" target="dPPaEK9G9NtgSY-2lidK-18" edge="1">
          <mxGeometry relative="1" as="geometry">
            <mxPoint x="882" y="636" as="sourcePoint" />
            <mxPoint x="870" y="630" as="targetPoint" />
            <Array as="points" />
          </mxGeometry>
        </mxCell>
        <mxCell id="1YrKZovokf1GKeR1xNj7-24" value="" style="endArrow=none;html=1;rounded=0;strokeColor=default;strokeWidth=2;align=center;verticalAlign=middle;fontFamily=Helvetica;fontSize=12;fontColor=#000000;fontStyle=1;labelBackgroundColor=default;jumpSize=13;startSize=9;endSize=9;entryX=0.643;entryY=1.031;entryDx=0;entryDy=0;entryPerimeter=0;" parent="1" source="1YrKZovokf1GKeR1xNj7-21" target="dPPaEK9G9NtgSY-2lidK-18" edge="1">
          <mxGeometry relative="1" as="geometry">
            <mxPoint x="1046" y="676" as="sourcePoint" />
            <mxPoint x="984" y="613" as="targetPoint" />
            <Array as="points" />
          </mxGeometry>
        </mxCell>
        <mxCell id="1YrKZovokf1GKeR1xNj7-25" value="addon_id" style="ellipse;whiteSpace=wrap;html=1;align=center;fontStyle=4;strokeColor=#000000;verticalAlign=middle;fontFamily=Helvetica;fontSize=12;fontColor=#000000;fillColor=#FFFFFF;" parent="1" vertex="1">
          <mxGeometry x="1010" y="660" width="100" height="40" as="geometry" />
        </mxCell>
        <mxCell id="1YrKZovokf1GKeR1xNj7-26" value="addon_name" style="ellipse;whiteSpace=wrap;html=1;align=center;strokeColor=#000000;verticalAlign=middle;fontFamily=Helvetica;fontSize=12;fontColor=#000000;fontStyle=1;fillColor=#FFFFFF;" parent="1" vertex="1">
          <mxGeometry x="1110" y="660" width="100" height="40" as="geometry" />
        </mxCell>
        <mxCell id="1YrKZovokf1GKeR1xNj7-28" value="" style="endArrow=none;html=1;rounded=0;strokeColor=default;strokeWidth=2;align=center;verticalAlign=middle;fontFamily=Helvetica;fontSize=12;fontColor=#000000;fontStyle=1;labelBackgroundColor=default;jumpSize=13;startSize=9;endSize=9;" parent="1" source="1YrKZovokf1GKeR1xNj7-25" target="uLvGfTFa8WDCAzrJC_-o-31" edge="1">
          <mxGeometry relative="1" as="geometry">
            <mxPoint x="964" y="643" as="sourcePoint" />
            <mxPoint x="953" y="610" as="targetPoint" />
            <Array as="points" />
          </mxGeometry>
        </mxCell>
        <mxCell id="1YrKZovokf1GKeR1xNj7-29" value="" style="endArrow=none;html=1;rounded=0;strokeColor=default;strokeWidth=2;align=center;verticalAlign=middle;fontFamily=Helvetica;fontSize=12;fontColor=#000000;fontStyle=1;labelBackgroundColor=default;jumpSize=13;startSize=9;endSize=9;entryX=0.5;entryY=1;entryDx=0;entryDy=0;" parent="1" source="1YrKZovokf1GKeR1xNj7-26" target="uLvGfTFa8WDCAzrJC_-o-31" edge="1">
          <mxGeometry relative="1" as="geometry">
            <mxPoint x="1098" y="644" as="sourcePoint" />
            <mxPoint x="1141" y="600" as="targetPoint" />
            <Array as="points" />
          </mxGeometry>
        </mxCell>
        <mxCell id="1YrKZovokf1GKeR1xNj7-31" value="" style="endArrow=none;html=1;rounded=0;strokeColor=default;strokeWidth=2;align=center;verticalAlign=middle;fontFamily=Helvetica;fontSize=12;fontColor=#000000;fontStyle=1;labelBackgroundColor=default;jumpSize=13;startSize=9;endSize=9;entryX=0.673;entryY=1.006;entryDx=0;entryDy=0;entryPerimeter=0;" parent="1" source="PLzlTSLsuADTGb6DuBat-16" target="uLvGfTFa8WDCAzrJC_-o-31" edge="1">
          <mxGeometry relative="1" as="geometry">
            <mxPoint x="1271.4304661822953" y="651.4304661822953" as="sourcePoint" />
            <mxPoint x="1160" y="600" as="targetPoint" />
            <Array as="points" />
          </mxGeometry>
        </mxCell>
        <mxCell id="PLzlTSLsuADTGb6DuBat-1" value="" style="endArrow=classic;html=1;rounded=0;exitX=0.5;exitY=1;exitDx=0;exitDy=0;entryX=0.5;entryY=0;entryDx=0;entryDy=0;strokeWidth=4;" parent="1" source="dPPaEK9G9NtgSY-2lidK-19" target="dPPaEK9G9NtgSY-2lidK-15" edge="1">
          <mxGeometry width="50" height="50" relative="1" as="geometry">
            <mxPoint x="80" y="310" as="sourcePoint" />
            <mxPoint x="130" y="260" as="targetPoint" />
          </mxGeometry>
        </mxCell>
        <mxCell id="PLzlTSLsuADTGb6DuBat-2" value="" style="endArrow=none;html=1;rounded=0;strokeColor=default;strokeWidth=4;align=center;verticalAlign=middle;fontFamily=Helvetica;fontSize=11;fontColor=default;labelBackgroundColor=default;exitX=1;exitY=0.5;exitDx=0;exitDy=0;entryX=0;entryY=0.5;entryDx=0;entryDy=0;" parent="1" source="dPPaEK9G9NtgSY-2lidK-19" target="dPPaEK9G9NtgSY-2lidK-16" edge="1">
          <mxGeometry width="50" height="50" relative="1" as="geometry">
            <mxPoint x="200" y="170" as="sourcePoint" />
            <mxPoint x="250" y="120" as="targetPoint" />
          </mxGeometry>
        </mxCell>
        <mxCell id="PLzlTSLsuADTGb6DuBat-3" value="" style="endArrow=classic;html=1;rounded=0;strokeColor=default;strokeWidth=4;align=center;verticalAlign=middle;fontFamily=Helvetica;fontSize=11;fontColor=default;labelBackgroundColor=default;exitX=1;exitY=0.5;exitDx=0;exitDy=0;entryX=0;entryY=0.5;entryDx=0;entryDy=0;" parent="1" source="dPPaEK9G9NtgSY-2lidK-15" target="uLvGfTFa8WDCAzrJC_-o-19" edge="1">
          <mxGeometry width="50" height="50" relative="1" as="geometry">
            <mxPoint x="190" y="470" as="sourcePoint" />
            <mxPoint x="240" y="420" as="targetPoint" />
          </mxGeometry>
        </mxCell>
        <mxCell id="PLzlTSLsuADTGb6DuBat-4" value="" style="endArrow=none;html=1;rounded=0;strokeColor=default;strokeWidth=4;align=center;verticalAlign=middle;fontFamily=Helvetica;fontSize=11;fontColor=default;labelBackgroundColor=default;exitX=1;exitY=0.5;exitDx=0;exitDy=0;entryX=0;entryY=0.5;entryDx=0;entryDy=0;" parent="1" source="uLvGfTFa8WDCAzrJC_-o-19" target="dPPaEK9G9NtgSY-2lidK-17" edge="1">
          <mxGeometry width="50" height="50" relative="1" as="geometry">
            <mxPoint x="300" y="450" as="sourcePoint" />
            <mxPoint x="350" y="400" as="targetPoint" />
          </mxGeometry>
        </mxCell>
        <mxCell id="PLzlTSLsuADTGb6DuBat-5" value="" style="endArrow=classic;html=1;rounded=0;strokeColor=default;strokeWidth=4;align=center;verticalAlign=middle;fontFamily=Helvetica;fontSize=11;fontColor=default;labelBackgroundColor=default;exitX=1;exitY=0.5;exitDx=0;exitDy=0;entryX=0;entryY=0.5;entryDx=0;entryDy=0;" parent="1" source="PLzlTSLsuADTGb6DuBat-43" target="PLzlTSLsuADTGb6DuBat-44" edge="1">
          <mxGeometry width="50" height="50" relative="1" as="geometry">
            <mxPoint x="645.9999999999991" y="402.9999999999991" as="sourcePoint" />
            <mxPoint x="735.9999999999991" y="400.4999999999991" as="targetPoint" />
          </mxGeometry>
        </mxCell>
        <mxCell id="PLzlTSLsuADTGb6DuBat-6" value="" style="endArrow=classic;html=1;rounded=0;strokeColor=default;strokeWidth=4;align=center;verticalAlign=middle;fontFamily=Helvetica;fontSize=11;fontColor=default;labelBackgroundColor=default;exitX=0;exitY=0.5;exitDx=0;exitDy=0;" parent="1" source="PLzlTSLsuADTGb6DuBat-43" target="dPPaEK9G9NtgSY-2lidK-17" edge="1">
          <mxGeometry width="50" height="50" relative="1" as="geometry">
            <mxPoint x="515.9999999999991" y="402.9999999999991" as="sourcePoint" />
            <mxPoint x="520" y="390" as="targetPoint" />
          </mxGeometry>
        </mxCell>
        <mxCell id="PLzlTSLsuADTGb6DuBat-7" value="" style="endArrow=classic;html=1;rounded=0;strokeColor=default;strokeWidth=4;align=center;verticalAlign=middle;fontFamily=Helvetica;fontSize=11;fontColor=default;labelBackgroundColor=default;exitX=1;exitY=0.5;exitDx=0;exitDy=0;entryX=0.25;entryY=0;entryDx=0;entryDy=0;" parent="1" source="uLvGfTFa8WDCAzrJC_-o-41" target="uLvGfTFa8WDCAzrJC_-o-44" edge="1">
          <mxGeometry width="50" height="50" relative="1" as="geometry">
            <mxPoint x="750" y="550" as="sourcePoint" />
            <mxPoint x="800" y="500" as="targetPoint" />
          </mxGeometry>
        </mxCell>
        <mxCell id="PLzlTSLsuADTGb6DuBat-8" value="" style="endArrow=none;html=1;rounded=0;strokeColor=default;strokeWidth=4;align=center;verticalAlign=middle;fontFamily=Helvetica;fontSize=11;fontColor=default;labelBackgroundColor=default;entryX=0.5;entryY=0;entryDx=0;entryDy=0;" parent="1" source="dPPaEK9G9NtgSY-2lidK-17" target="uLvGfTFa8WDCAzrJC_-o-41" edge="1">
          <mxGeometry width="50" height="50" relative="1" as="geometry">
            <mxPoint x="420" y="530" as="sourcePoint" />
            <mxPoint x="470" y="480" as="targetPoint" />
          </mxGeometry>
        </mxCell>
        <mxCell id="PLzlTSLsuADTGb6DuBat-9" value="" style="endArrow=classic;html=1;rounded=0;strokeColor=default;strokeWidth=4;align=center;verticalAlign=middle;fontFamily=Helvetica;fontSize=11;fontColor=default;labelBackgroundColor=default;exitX=0;exitY=0.5;exitDx=0;exitDy=0;" parent="1" source="uLvGfTFa8WDCAzrJC_-o-41" target="uLvGfTFa8WDCAzrJC_-o-43" edge="1">
          <mxGeometry width="50" height="50" relative="1" as="geometry">
            <mxPoint x="370" y="580" as="sourcePoint" />
            <mxPoint x="420" y="530" as="targetPoint" />
          </mxGeometry>
        </mxCell>
        <mxCell id="PLzlTSLsuADTGb6DuBat-10" value="" style="endArrow=none;html=1;rounded=0;strokeColor=default;strokeWidth=4;align=center;verticalAlign=middle;fontFamily=Helvetica;fontSize=11;fontColor=default;labelBackgroundColor=default;exitX=0.5;exitY=0;exitDx=0;exitDy=0;entryX=0;entryY=1;entryDx=0;entryDy=0;" parent="1" source="uLvGfTFa8WDCAzrJC_-o-35" target="dPPaEK9G9NtgSY-2lidK-17" edge="1">
          <mxGeometry width="50" height="50" relative="1" as="geometry">
            <mxPoint x="270" y="460" as="sourcePoint" />
            <mxPoint x="320" y="410" as="targetPoint" />
          </mxGeometry>
        </mxCell>
        <mxCell id="PLzlTSLsuADTGb6DuBat-11" value="" style="endArrow=classic;html=1;rounded=0;strokeColor=default;strokeWidth=4;align=center;verticalAlign=middle;fontFamily=Helvetica;fontSize=11;fontColor=default;labelBackgroundColor=default;exitX=1;exitY=0.5;exitDx=0;exitDy=0;entryX=0.5;entryY=0;entryDx=0;entryDy=0;" parent="1" source="PLzlTSLsuADTGb6DuBat-44" target="uLvGfTFa8WDCAzrJC_-o-27" edge="1">
          <mxGeometry width="50" height="50" relative="1" as="geometry">
            <mxPoint x="838.96" y="430.0199999999995" as="sourcePoint" />
            <mxPoint x="940" y="430" as="targetPoint" />
          </mxGeometry>
        </mxCell>
        <mxCell id="PLzlTSLsuADTGb6DuBat-12" value="" style="endArrow=classic;html=1;rounded=0;strokeColor=default;strokeWidth=4;align=center;verticalAlign=middle;fontFamily=Helvetica;fontSize=11;fontColor=default;labelBackgroundColor=default;exitX=0;exitY=0.5;exitDx=0;exitDy=0;entryX=0.449;entryY=0.005;entryDx=0;entryDy=0;entryPerimeter=0;" parent="1" source="uLvGfTFa8WDCAzrJC_-o-27" target="dPPaEK9G9NtgSY-2lidK-18" edge="1">
          <mxGeometry width="50" height="50" relative="1" as="geometry">
            <mxPoint x="820" y="540" as="sourcePoint" />
            <mxPoint x="870" y="490" as="targetPoint" />
          </mxGeometry>
        </mxCell>
        <mxCell id="PLzlTSLsuADTGb6DuBat-13" value="" style="endArrow=classic;html=1;rounded=0;strokeColor=default;strokeWidth=4;align=center;verticalAlign=middle;fontFamily=Helvetica;fontSize=11;fontColor=default;labelBackgroundColor=default;exitX=1;exitY=0.5;exitDx=0;exitDy=0;entryX=0.504;entryY=-0.129;entryDx=0;entryDy=0;entryPerimeter=0;" parent="1" source="uLvGfTFa8WDCAzrJC_-o-27" target="uLvGfTFa8WDCAzrJC_-o-31" edge="1">
          <mxGeometry width="50" height="50" relative="1" as="geometry">
            <mxPoint x="1110" y="420" as="sourcePoint" />
            <mxPoint x="1160" y="370" as="targetPoint" />
          </mxGeometry>
        </mxCell>
        <mxCell id="PLzlTSLsuADTGb6DuBat-16" value="price" style="ellipse;whiteSpace=wrap;html=1;align=center;strokeColor=#000000;verticalAlign=middle;fontFamily=Helvetica;fontSize=12;fontColor=#000000;fontStyle=1;fillColor=#FFFFFF;" parent="1" vertex="1">
          <mxGeometry x="1210" y="659" width="100" height="42" as="geometry" />
        </mxCell>
        <mxCell id="PLzlTSLsuADTGb6DuBat-18" value="date" style="ellipse;whiteSpace=wrap;html=1;align=center;strokeColor=#000000;verticalAlign=middle;fontFamily=Helvetica;fontSize=12;fontColor=#000000;fontStyle=1;fillColor=#FFFFFF;" parent="1" vertex="1">
          <mxGeometry x="870" y="620" width="70" height="40" as="geometry" />
        </mxCell>
        <mxCell id="PLzlTSLsuADTGb6DuBat-20" value="" style="endArrow=none;html=1;rounded=0;strokeColor=default;strokeWidth=2;align=center;verticalAlign=middle;fontFamily=Helvetica;fontSize=12;fontColor=#000000;fontStyle=1;labelBackgroundColor=default;jumpSize=13;startSize=9;endSize=9;" parent="1" source="PLzlTSLsuADTGb6DuBat-18" target="dPPaEK9G9NtgSY-2lidK-18" edge="1">
          <mxGeometry width="50" height="50" relative="1" as="geometry">
            <mxPoint x="870" y="650" as="sourcePoint" />
            <mxPoint x="920" y="600" as="targetPoint" />
          </mxGeometry>
        </mxCell>
        <mxCell id="PLzlTSLsuADTGb6DuBat-21" value="MANAGER" style="whiteSpace=wrap;html=1;align=center;strokeColor=#d6b656;verticalAlign=middle;fontFamily=Helvetica;fontSize=12;fontColor=default;fillColor=#fff2cc;fontStyle=1" parent="1" vertex="1">
          <mxGeometry x="41" y="-20" width="100" height="50" as="geometry" />
        </mxCell>
        <mxCell id="PLzlTSLsuADTGb6DuBat-22" value="manager_id" style="ellipse;whiteSpace=wrap;html=1;align=center;strokeColor=#000000;verticalAlign=middle;fontFamily=Helvetica;fontSize=12;fontColor=#000000;fontStyle=4;fillColor=#FFFFFF;" parent="1" vertex="1">
          <mxGeometry x="120" y="-120" width="100" height="40" as="geometry" />
        </mxCell>
        <mxCell id="PLzlTSLsuADTGb6DuBat-24" value="hotel_id" style="ellipse;whiteSpace=wrap;html=1;align=center;strokeColor=#000000;verticalAlign=middle;fontFamily=Helvetica;fontSize=12;fontColor=#000000;fontStyle=1;fillColor=#FFFFFF;" parent="1" vertex="1">
          <mxGeometry x="20" y="-130" width="100" height="40" as="geometry" />
        </mxCell>
        <mxCell id="PLzlTSLsuADTGb6DuBat-25" value="employee_id" style="ellipse;whiteSpace=wrap;html=1;align=center;strokeColor=#000000;verticalAlign=middle;fontFamily=Helvetica;fontSize=12;fontColor=#000000;fontStyle=1;fillColor=#FFFFFF;" parent="1" vertex="1">
          <mxGeometry x="-74" y="-110" width="100" height="40" as="geometry" />
        </mxCell>
        <mxCell id="PLzlTSLsuADTGb6DuBat-26" value="manager_name" style="ellipse;whiteSpace=wrap;html=1;align=center;strokeColor=#000000;verticalAlign=middle;fontFamily=Helvetica;fontSize=12;fontColor=#000000;fontStyle=1;fillColor=#FFFFFF;" parent="1" vertex="1">
          <mxGeometry x="-90" y="-60" width="100" height="40" as="geometry" />
        </mxCell>
        <mxCell id="PLzlTSLsuADTGb6DuBat-27" value="phone_number" style="ellipse;whiteSpace=wrap;html=1;align=center;strokeColor=#000000;verticalAlign=middle;fontFamily=Helvetica;fontSize=12;fontColor=#000000;fontStyle=1;fillColor=#FFFFFF;" parent="1" vertex="1">
          <mxGeometry x="180" y="-80" width="100" height="40" as="geometry" />
        </mxCell>
        <mxCell id="PLzlTSLsuADTGb6DuBat-28" value="" style="endArrow=none;html=1;rounded=0;strokeColor=default;strokeWidth=2;align=center;verticalAlign=middle;fontFamily=Helvetica;fontSize=12;fontColor=#000000;fontStyle=1;labelBackgroundColor=default;jumpSize=13;startSize=9;endSize=9;exitX=0.25;exitY=0;exitDx=0;exitDy=0;entryX=0.93;entryY=0.808;entryDx=0;entryDy=0;entryPerimeter=0;" parent="1" source="PLzlTSLsuADTGb6DuBat-21" target="PLzlTSLsuADTGb6DuBat-25" edge="1">
          <mxGeometry width="50" height="50" relative="1" as="geometry">
            <mxPoint x="-30" as="sourcePoint" />
            <mxPoint x="-10" y="-70" as="targetPoint" />
          </mxGeometry>
        </mxCell>
        <mxCell id="PLzlTSLsuADTGb6DuBat-29" value="" style="endArrow=none;html=1;rounded=0;strokeColor=default;strokeWidth=2;align=center;verticalAlign=middle;fontFamily=Helvetica;fontSize=12;fontColor=#000000;fontStyle=1;labelBackgroundColor=default;jumpSize=13;startSize=9;endSize=9;exitX=1;exitY=0.5;exitDx=0;exitDy=0;entryX=0;entryY=0;entryDx=0;entryDy=0;" parent="1" source="PLzlTSLsuADTGb6DuBat-26" target="PLzlTSLsuADTGb6DuBat-21" edge="1">
          <mxGeometry width="50" height="50" relative="1" as="geometry">
            <mxPoint x="-20" y="10" as="sourcePoint" />
            <mxPoint x="30" y="-40" as="targetPoint" />
          </mxGeometry>
        </mxCell>
        <mxCell id="PLzlTSLsuADTGb6DuBat-30" value="" style="endArrow=none;html=1;rounded=0;strokeColor=default;strokeWidth=2;align=center;verticalAlign=middle;fontFamily=Helvetica;fontSize=12;fontColor=#000000;fontStyle=1;labelBackgroundColor=default;jumpSize=13;startSize=9;endSize=9;entryX=0.5;entryY=1;entryDx=0;entryDy=0;exitX=0.382;exitY=0.03;exitDx=0;exitDy=0;exitPerimeter=0;" parent="1" source="PLzlTSLsuADTGb6DuBat-21" target="PLzlTSLsuADTGb6DuBat-24" edge="1">
          <mxGeometry width="50" height="50" relative="1" as="geometry">
            <mxPoint x="60" y="-10" as="sourcePoint" />
            <mxPoint x="110" y="-60" as="targetPoint" />
          </mxGeometry>
        </mxCell>
        <mxCell id="PLzlTSLsuADTGb6DuBat-31" value="" style="endArrow=none;html=1;rounded=0;strokeColor=default;strokeWidth=2;align=center;verticalAlign=middle;fontFamily=Helvetica;fontSize=12;fontColor=#000000;fontStyle=1;labelBackgroundColor=default;jumpSize=13;startSize=9;endSize=9;" parent="1" source="PLzlTSLsuADTGb6DuBat-21" target="PLzlTSLsuADTGb6DuBat-22" edge="1">
          <mxGeometry width="50" height="50" relative="1" as="geometry">
            <mxPoint x="120" y="-30" as="sourcePoint" />
            <mxPoint x="170" y="-80" as="targetPoint" />
          </mxGeometry>
        </mxCell>
        <mxCell id="PLzlTSLsuADTGb6DuBat-32" value="" style="endArrow=none;html=1;rounded=0;strokeColor=default;strokeWidth=2;align=center;verticalAlign=middle;fontFamily=Helvetica;fontSize=12;fontColor=#000000;fontStyle=1;labelBackgroundColor=default;jumpSize=13;startSize=9;endSize=9;exitX=0.869;exitY=-0.02;exitDx=0;exitDy=0;exitPerimeter=0;" parent="1" source="PLzlTSLsuADTGb6DuBat-21" target="PLzlTSLsuADTGb6DuBat-27" edge="1">
          <mxGeometry width="50" height="50" relative="1" as="geometry">
            <mxPoint x="140" y="40" as="sourcePoint" />
            <mxPoint x="190" y="-10" as="targetPoint" />
          </mxGeometry>
        </mxCell>
        <mxCell id="PLzlTSLsuADTGb6DuBat-34" value="manager_id" style="ellipse;whiteSpace=wrap;html=1;align=center;strokeColor=#000000;verticalAlign=middle;fontFamily=Helvetica;fontSize=12;fontColor=#000000;fontStyle=1;fillColor=#FFFFFF;" parent="1" vertex="1">
          <mxGeometry x="-110" y="313" width="100" height="40" as="geometry" />
        </mxCell>
        <mxCell id="PLzlTSLsuADTGb6DuBat-35" value="" style="endArrow=none;html=1;rounded=0;strokeColor=default;strokeWidth=2;align=center;verticalAlign=middle;fontFamily=Helvetica;fontSize=12;fontColor=#000000;fontStyle=1;labelBackgroundColor=default;jumpSize=13;startSize=9;endSize=9;entryX=0;entryY=0;entryDx=0;entryDy=0;exitX=0.957;exitY=0.761;exitDx=0;exitDy=0;exitPerimeter=0;" parent="1" source="PLzlTSLsuADTGb6DuBat-34" target="dPPaEK9G9NtgSY-2lidK-15" edge="1">
          <mxGeometry relative="1" as="geometry">
            <mxPoint x="-60" y="350" as="sourcePoint" />
            <mxPoint x="70" y="396" as="targetPoint" />
          </mxGeometry>
        </mxCell>
        <mxCell id="PLzlTSLsuADTGb6DuBat-36" value="" style="endArrow=classic;html=1;rounded=0;exitX=0.5;exitY=0;exitDx=0;exitDy=0;entryX=0.5;entryY=1;entryDx=0;entryDy=0;strokeWidth=4;" parent="1" source="dPPaEK9G9NtgSY-2lidK-19" target="PLzlTSLsuADTGb6DuBat-21" edge="1">
          <mxGeometry width="50" height="50" relative="1" as="geometry">
            <mxPoint x="101" y="183" as="sourcePoint" />
            <mxPoint x="100" y="396" as="targetPoint" />
          </mxGeometry>
        </mxCell>
        <mxCell id="PLzlTSLsuADTGb6DuBat-37" value="" style="endArrow=classic;html=1;rounded=0;exitX=0.5;exitY=0;exitDx=0;exitDy=0;entryX=0.5;entryY=1;entryDx=0;entryDy=0;strokeWidth=4;" parent="1" source="uLvGfTFa8WDCAzrJC_-o-15" target="dPPaEK9G9NtgSY-2lidK-16" edge="1">
          <mxGeometry width="50" height="50" relative="1" as="geometry">
            <mxPoint x="381" y="266" as="sourcePoint" />
            <mxPoint x="381" y="183" as="targetPoint" />
          </mxGeometry>
        </mxCell>
        <mxCell id="PLzlTSLsuADTGb6DuBat-39" value="" style="endArrow=none;html=1;rounded=0;strokeColor=default;strokeWidth=2;align=center;verticalAlign=middle;fontFamily=Helvetica;fontSize=12;fontColor=#ffffff;fontStyle=1;labelBackgroundColor=default;jumpSize=13;startSize=9;endSize=9;entryX=0.392;entryY=0.007;entryDx=0;entryDy=0;entryPerimeter=0;" parent="1" target="dPPaEK9G9NtgSY-2lidK-16" edge="1">
          <mxGeometry relative="1" as="geometry">
            <mxPoint x="480" y="40" as="sourcePoint" />
            <mxPoint x="440" y="143" as="targetPoint" />
          </mxGeometry>
        </mxCell>
        <mxCell id="PLzlTSLsuADTGb6DuBat-42" value="" style="endArrow=none;html=1;rounded=0;strokeColor=default;strokeWidth=2;align=center;verticalAlign=middle;fontFamily=Helvetica;fontSize=12;fontColor=#000000;fontStyle=1;labelBackgroundColor=default;jumpSize=13;startSize=9;endSize=9;exitX=0.33;exitY=0.058;exitDx=0;exitDy=0;entryX=0.296;entryY=0.965;entryDx=0;entryDy=0;entryPerimeter=0;exitPerimeter=0;" parent="1" source="-mcHrNaYeSExfV8_1VFp-3" target="uLvGfTFa8WDCAzrJC_-o-58" edge="1">
          <mxGeometry width="50" height="50" relative="1" as="geometry">
            <mxPoint x="570.0000000000009" y="30.00000000000091" as="sourcePoint" />
            <mxPoint x="570" y="160" as="targetPoint" />
            <Array as="points" />
          </mxGeometry>
        </mxCell>
        <mxCell id="PLzlTSLsuADTGb6DuBat-43" value="CHECK" style="shape=rhombus;double=1;perimeter=rhombusPerimeter;whiteSpace=wrap;html=1;align=center;strokeColor=#FFFFFF;verticalAlign=middle;fontFamily=Helvetica;fontSize=12;fontColor=#ffffff;fontStyle=1;fillColor=#0050ef;" parent="1" vertex="1">
          <mxGeometry x="540" y="380" width="120" height="60" as="geometry" />
        </mxCell>
        <mxCell id="PLzlTSLsuADTGb6DuBat-44" value="GUEST" style="shape=ext;margin=3;double=1;whiteSpace=wrap;html=1;align=center;strokeColor=#262521;verticalAlign=middle;fontFamily=Helvetica;fontSize=12;fontStyle=1;fillColor=#fff2cc;" parent="1" vertex="1">
          <mxGeometry x="740" y="380" width="100" height="60" as="geometry" />
        </mxCell>
        <mxCell id="D7d2yOZPQLarrH2dH4n5-5" value="" style="endArrow=none;html=1;rounded=0;strokeColor=default;strokeWidth=2;align=center;verticalAlign=middle;fontFamily=Helvetica;fontSize=12;fontColor=#000000;fontStyle=1;labelBackgroundColor=default;jumpSize=13;startSize=9;endSize=9;exitX=0.5;exitY=0;exitDx=0;exitDy=0;entryX=0.5;entryY=1;entryDx=0;entryDy=0;" parent="1" source="1YrKZovokf1GKeR1xNj7-5" target="uLvGfTFa8WDCAzrJC_-o-37" edge="1">
          <mxGeometry relative="1" as="geometry">
            <mxPoint x="281" y="674" as="sourcePoint" />
            <mxPoint x="291" y="643" as="targetPoint" />
            <Array as="points" />
          </mxGeometry>
        </mxCell>
        <mxCell id="-mcHrNaYeSExfV8_1VFp-1" value="" style="endArrow=none;html=1;rounded=0;strokeColor=default;strokeWidth=5;align=center;verticalAlign=middle;fontFamily=Helvetica;fontSize=12;fontColor=default;labelBackgroundColor=default;jumpSize=13;startSize=9;endSize=9;fontStyle=1;entryX=0;entryY=0.5;entryDx=0;entryDy=0;exitX=1;exitY=0.5;exitDx=0;exitDy=0;" edge="1" parent="1" source="uLvGfTFa8WDCAzrJC_-o-13" target="uLvGfTFa8WDCAzrJC_-o-15">
          <mxGeometry relative="1" as="geometry">
            <mxPoint x="530" y="240" as="sourcePoint" />
            <mxPoint x="590" y="243" as="targetPoint" />
          </mxGeometry>
        </mxCell>
        <mxCell id="-mcHrNaYeSExfV8_1VFp-2" value="manager_id" style="ellipse;whiteSpace=wrap;html=1;align=center;strokeColor=#000000;verticalAlign=middle;fontFamily=Helvetica;fontSize=12;fontColor=#000000;fontStyle=1;labelBackgroundColor=default;fillColor=#FFFFFF;" vertex="1" parent="1">
          <mxGeometry x="520" y="30" width="100" height="40" as="geometry" />
        </mxCell>
        <mxCell id="-mcHrNaYeSExfV8_1VFp-3" value="name" style="ellipse;whiteSpace=wrap;html=1;align=center;strokeColor=#000000;verticalAlign=middle;fontFamily=Helvetica;fontSize=12;fontColor=#000000;fontStyle=1;fillColor=#FFFFFF;" vertex="1" parent="1">
          <mxGeometry x="446" width="100" height="40" as="geometry" />
        </mxCell>
      </root>
    </mxGraphModel>
  </diagram>
</mxfile>
